<svg width="1024" height="1024" viewBox="0 0 1024 1024" xmlns="http://www.w3.org/2000/svg">
  <rect width="1024" height="1024" fill="#F5F5F7" />
  <g transform="translate(212, 212) scale(3)">
    <g opacity="0.95">
      <ellipse cx="100" cy="100" rx="76" ry="24" stroke="#E5E5EA" stroke-width="2.5" fill="none" />
      <ellipse cx="100" cy="100" rx="82" ry="28" stroke="#E5E5EA" stroke-width="1" opacity="0.6" fill="none" />
      <g transform="rotate(22 100 100)">
        <ellipse cx="100" cy="100" rx="76" ry="24" stroke="#E5E5EA" stroke-width="2.5" fill="none" />
        <ellipse cx="100" cy="100" rx="82" ry="28" stroke="#E5E5EA" stroke-width="1" opacity="0.6" fill="none" />
      </g>
      <g transform="rotate(-22 100 100)">
        <ellipse cx="100" cy="100" rx="76" ry="24" stroke="#E5E5EA" stroke-width="2.5" fill="none" />
        <ellipse cx="100" cy="100" rx="82" ry="28" stroke="#E5E5EA" stroke-width="1" opacity="0.6" fill="none" />
      </g>
    </g>
    <circle cx="100" cy="100" r="22" stroke="#E5E5EA" stroke-width="4" fill="none" />
    <circle cx="100" cy="100" r="17" stroke="#E5E5EA" stroke-width="0.8" opacity="0.7" fill="none" />
    <path d="M100 16 L100 78" stroke="#E5E5EA" stroke-width="3.5" stroke-linecap="round" fill="none" />
    <path d="M100 122 L100 184" stroke="#E5E5EA" stroke-width="3.5" stroke-linecap="round" fill="none" />
    <path d="M100 0 Q100 24 116 24 Q100 24 100 48 Q100 24 84 24 Q100 24 100 0 Z" fill="#E5E5EA" />
    <path d="M100 152 Q100 176 116 176 Q100 176 100 200 Q100 176 84 176 Q100 176 100 152 Z" fill="#E5E5EA" />
    <path d="M34 34 Q40 40 46 34 Q40 40 40 46 Q40 40 34 40 Q40 40 34 34 Z" fill="#E5E5EA" />
    <path d="M166 166 Q160 160 154 166 Q160 160 160 154 Q160 160 166 160 Q160 160 166 166 Z" fill="#E5E5EA" />
    <path d="M166 34 Q160 40 154 34 Q160 40 160 46 Q160 40 166 40 Q160 40 166 34 Z" fill="#E5E5EA" />
    <path d="M34 166 Q40 160 46 166 Q40 160 40 154 Q40 160 34 160 Q40 160 34 166 Z" fill="#E5E5EA" />
    <circle cx="68" cy="80" r="1.8" fill="#E5E5EA" />
    <circle cx="132" cy="120" r="1.8" fill="#E5E5EA" />
    <circle cx="132" cy="80" r="1.8" fill="#E5E5EA" />
    <circle cx="68" cy="120" r="1.8" fill="#E5E5EA" />
  </g>
</svg>